REM DIRINDEX 1\2,1\3,1\4,1\5
REM DIRNAME folder01,folder02,folder03,folder04,folder05
TITLE ""
FILE "CD2Track14.mp3" MP3
  TRACK 01 AUDIO
    TITLE "0:"
    INDEX 01 00:00:00
  TRACK 02 AUDIO
    TITLE "2:cjc100_1529"
    INDEX 01 00:00:25
  TRACK 03 AUDIO
    TITLE "2:cjc100_1530"
    INDEX 01 00:02:00
  TRACK 04 AUDIO
    TITLE "0:"
    INDEX 01 00:09:73
  TRACK 05 AUDIO
    TITLE "2:cjc100_1531"
    INDEX 01 00:10:35
  TRACK 06 AUDIO
    TITLE "2:cjc100_1532"
    INDEX 01 00:11:50
  TRACK 07 AUDIO
    TITLE "0:"
    INDEX 01 00:18:33
  TRACK 08 AUDIO
    TITLE "2:cjc100_1533"
    INDEX 01 00:19:09
  TRACK 09 AUDIO
    TITLE "2:cjc100_1534"
    INDEX 01 00:20:41
  TRACK 10 AUDIO
    TITLE "0:"
    INDEX 01 00:27:57
  TRACK 11 AUDIO
    TITLE "2:cjc100_1535"
    INDEX 01 00:28:27
  TRACK 12 AUDIO
    TITLE "2:cjc100_1536"
    INDEX 01 00:29:58
  TRACK 13 AUDIO
    TITLE "0:"
    INDEX 01 00:37:10
  TRACK 14 AUDIO
    TITLE "2:cjc100_1537"
    INDEX 01 00:37:48
  TRACK 15 AUDIO
    TITLE "2:cjc100_1538"
    INDEX 01 00:39:11
  TRACK 16 AUDIO
    TITLE "0:"
    INDEX 01 00:42:00
  TRACK 17 AUDIO
    TITLE "2:cjc100_1539"
    INDEX 01 00:42:18
  TRACK 18 AUDIO
    TITLE "0:"
    INDEX 01 00:46:21
  TRACK 19 AUDIO
    TITLE "2:cjc100_1540"
    INDEX 01 00:46:70
  TRACK 20 AUDIO
    TITLE "2:cjc100_1541"
    INDEX 01 00:48:24
  TRACK 21 AUDIO
    TITLE "0:"
    INDEX 01 00:55:20
  TRACK 22 AUDIO
    TITLE "2:cjc100_1542"
    INDEX 01 00:55:57
  TRACK 23 AUDIO
    TITLE "2:cjc100_1543"
    INDEX 01 00:57:11
  TRACK 24 AUDIO
    TITLE "0:"
    INDEX 01 01:03:63
  TRACK 25 AUDIO
    TITLE "2:cjc100_1544"
    INDEX 01 01:04:25
  TRACK 26 AUDIO
    TITLE "2:cjc100_1545"
    INDEX 01 01:05:38
  TRACK 27 AUDIO
    TITLE "0:"
    INDEX 01 01:10:47
  TRACK 28 AUDIO
    TITLE "2:cjc100_1546"
    INDEX 01 01:11:11
  TRACK 29 AUDIO
    TITLE "2:cjc100_1547"
    INDEX 01 01:12:36
  TRACK 30 AUDIO
    TITLE "0:"
    INDEX 01 01:17:51
  TRACK 31 AUDIO
    TITLE "2:cjc100_1548"
    INDEX 01 01:18:13
  TRACK 32 AUDIO
    TITLE "2:cjc100_1549"
    INDEX 01 01:19:52
  TRACK 33 AUDIO
    TITLE "0:"
    INDEX 01 01:26:29
  TRACK 34 AUDIO
    TITLE "2:cjc100_1550"
    INDEX 01 01:26:72
  TRACK 35 AUDIO
    TITLE "2:cjc100_1551"
    INDEX 01 01:28:43
  TRACK 36 AUDIO
    TITLE "0:"
    INDEX 01 01:31:73
  TRACK 37 AUDIO
    TITLE "2:cjc100_1552"
    INDEX 01 01:32:39
  TRACK 38 AUDIO
    TITLE "2:cjc100_1553"
    INDEX 01 01:34:10
  TRACK 39 AUDIO
    TITLE "0:"
    INDEX 01 01:41:54
  TRACK 40 AUDIO
    TITLE "2:cjc100_1554"
    INDEX 01 01:42:18
  TRACK 41 AUDIO
    TITLE "2:cjc100_1555"
    INDEX 01 01:43:45
  TRACK 42 AUDIO
    TITLE "0:"
    INDEX 01 01:50:15
  TRACK 43 AUDIO
    TITLE "2:cjc100_1556"
    INDEX 01 01:50:51
  TRACK 44 AUDIO
    TITLE "2:cjc100_1557"
    INDEX 01 01:51:74
  TRACK 45 AUDIO
    TITLE "0:"
    INDEX 01 01:59:18
  TRACK 46 AUDIO
    TITLE "2:cjc100_1558"
    INDEX 01 01:59:53
  TRACK 47 AUDIO
    TITLE "2:cjc100_1559"
    INDEX 01 02:00:69
  TRACK 48 AUDIO
    TITLE "0:"
    INDEX 01 02:07:10
  TRACK 49 AUDIO
    TITLE "2:cjc100_1560"
    INDEX 01 02:07:49
  TRACK 50 AUDIO
    TITLE "2:cjc100_1561"
    INDEX 01 02:08:54
  TRACK 51 AUDIO
    TITLE "0:"
    INDEX 01 02:15:66
  TRACK 52 AUDIO
    TITLE "2:cjc100_1562"
    INDEX 01 02:16:32
  TRACK 53 AUDIO
    TITLE "2:cjc100_1563"
    INDEX 01 02:17:47
  TRACK 54 AUDIO
    TITLE "0:"
    INDEX 01 02:23:13
  TRACK 55 AUDIO
    TITLE "2:cjc100_1564"
    INDEX 01 02:23:56
  TRACK 56 AUDIO
    TITLE "2:cjc100_1565"
    INDEX 01 02:25:21
  TRACK 57 AUDIO
    TITLE "0:"
    INDEX 01 02:34:40
  TRACK 58 AUDIO
    TITLE "2:cjc100_1566"
    INDEX 01 02:35:04
  TRACK 59 AUDIO
    TITLE "2:cjc100_1567"
    INDEX 01 02:36:17
  TRACK 60 AUDIO
    TITLE "0:"
    INDEX 01 02:40:72
  TRACK 61 AUDIO
    TITLE "2:cjc100_1568"
    INDEX 01 02:41:42
  TRACK 62 AUDIO
    TITLE "2:cjc100_1569"
    INDEX 01 02:42:71
  TRACK 63 AUDIO
    TITLE "0:"
    INDEX 01 02:49:26
  TRACK 64 AUDIO
    TITLE "2:cjc100_1570"
    INDEX 01 02:49:53
  TRACK 65 AUDIO
    TITLE "2:cjc100_1571"
    INDEX 01 02:50:66
  TRACK 66 AUDIO
    TITLE "0:"
    INDEX 01 02:58:25
  TRACK 67 AUDIO
    TITLE "2:cjc100_1572"
    INDEX 01 02:58:66
  TRACK 68 AUDIO
    TITLE "2:cjc100_1573"
    INDEX 01 03:00:14
  TRACK 69 AUDIO
    TITLE "0:"
    INDEX 01 03:07:34
  TRACK 70 AUDIO
    TITLE "2:cjc100_1574"
    INDEX 01 03:08:02
  TRACK 71 AUDIO
    TITLE "2:cjc100_1575"
    INDEX 01 03:09:27
  TRACK 72 AUDIO
    TITLE "0:"
    INDEX 01 03:14:57
  TRACK 73 AUDIO
    TITLE "2:cjc100_1576"
    INDEX 01 03:15:21
  TRACK 74 AUDIO
    TITLE "2:cjc100_1577"
    INDEX 01 03:16:58
  TRACK 75 AUDIO
    TITLE "0:"
    INDEX 01 03:20:68
  TRACK 76 AUDIO
    TITLE "2:cjc100_1578"
    INDEX 01 03:21:32
  TRACK 77 AUDIO
    TITLE "2:cjc100_1579"
    INDEX 01 03:22:51
  TRACK 78 AUDIO
    TITLE "0:"
    INDEX 01 03:28:40
  TRACK 79 AUDIO
    TITLE "2:cjc100_1580"
    INDEX 01 03:29:04
  TRACK 80 AUDIO
    TITLE "2:cjc100_1581"
    INDEX 01 03:30:29
  TRACK 81 AUDIO
    TITLE "0:"
    INDEX 01 03:35:61
  TRACK 82 AUDIO
    TITLE "2:cjc100_1582"
    INDEX 01 03:36:22
  TRACK 83 AUDIO
    TITLE "2:cjc100_1583"
    INDEX 01 03:38:03
  TRACK 84 AUDIO
    TITLE "0:"
    INDEX 01 03:42:52
  TRACK 85 AUDIO
    TITLE "2:cjc100_1584"
    INDEX 01 03:43:20
  TRACK 86 AUDIO
    TITLE "2:cjc100_1585"
    INDEX 01 03:44:47
  TRACK 87 AUDIO
    TITLE "0:"
    INDEX 01 03:50:59
  TRACK 88 AUDIO
    TITLE "2:cjc100_1586"
    INDEX 01 03:51:29
  TRACK 89 AUDIO
    TITLE "2:cjc100_1587"
    INDEX 01 03:52:58
  TRACK 90 AUDIO
    TITLE "0:"
    INDEX 01 03:58:15
  TRACK 91 AUDIO
    TITLE "2:cjc100_1588"
    INDEX 01 03:58:53
  TRACK 92 AUDIO
    TITLE "2:cjc100_1589"
    INDEX 01 03:59:70
  TRACK 93 AUDIO
    TITLE "0:"
    INDEX 01 04:04:63
  TRACK 94 AUDIO
    TITLE "2:cjc100_1590"
    INDEX 01 04:05:43
  TRACK 95 AUDIO
    TITLE "2:cjc100_1591"
    INDEX 01 04:07:06
  TRACK 96 AUDIO
    TITLE "0:"
    INDEX 01 04:13:11
  TRACK 97 AUDIO
    TITLE "2:cjc100_1592"
    INDEX 01 04:13:56
  TRACK 98 AUDIO
    TITLE "2:cjc100_1593"
    INDEX 01 04:15:35
  TRACK 99 AUDIO
    TITLE "0:"
    INDEX 01 04:22:08
  TRACK 100 AUDIO
    TITLE "2:cjc100_1594"
    INDEX 01 04:22:55
  TRACK 101 AUDIO
    TITLE "2:cjc100_1595"
    INDEX 01 04:24:13
  TRACK 102 AUDIO
    TITLE "0:"
    INDEX 01 04:29:51
  TRACK 103 AUDIO
    TITLE "2:cjc100_1596"
    INDEX 01 04:30:19
  TRACK 104 AUDIO
    TITLE "2:cjc100_1597"
    INDEX 01 04:31:56
  TRACK 105 AUDIO
    TITLE "0:"
    INDEX 01 04:38:56
  TRACK 106 AUDIO
    TITLE "2:cjc100_1598"
    INDEX 01 04:39:18
  TRACK 107 AUDIO
    TITLE "2:cjc100_1599"
    INDEX 01 04:40:29
  TRACK 108 AUDIO
    TITLE "0:"
    INDEX 01 04:47:08
  TRACK 109 AUDIO
    TITLE "2:cjc100_1600"
    INDEX 01 04:47:45
  TRACK 110 AUDIO
    TITLE "2:cjc100_1601"
    INDEX 01 04:48:60
  TRACK 111 AUDIO
    TITLE "0:"
    INDEX 01 04:57:44
  TRACK 112 AUDIO
    TITLE "2:cjc100_1602"
    INDEX 01 04:58:04
  TRACK 113 AUDIO
    TITLE "2:cjc100_1603"
    INDEX 01 04:59:31
  TRACK 114 AUDIO
    TITLE "0:"
    INDEX 01 05:06:27
  TRACK 115 AUDIO
    TITLE "2:cjc100_1604"
    INDEX 01 05:06:74
  TRACK 116 AUDIO
    TITLE "2:cjc100_1605"
    INDEX 01 05:08:26
  TRACK 117 AUDIO
    TITLE "0:"
    INDEX 01 05:15:24
  TRACK 118 AUDIO
    TITLE "2:cjc100_1606"
    INDEX 01 05:15:65
  TRACK 119 AUDIO
    TITLE "2:cjc100_1607"
    INDEX 01 05:17:33
  TRACK 120 AUDIO
    TITLE "0:"
    INDEX 01 05:24:50
  TRACK 121 AUDIO
    TITLE "2:cjc100_1608"
    INDEX 01 05:25:18
  TRACK 122 AUDIO
    TITLE "2:cjc100_1609"
    INDEX 01 05:26:45
  TRACK 123 AUDIO
    TITLE "0:"
    INDEX 01 05:32:52
  TRACK 124 AUDIO
    TITLE "2:cjc100_1610"
    INDEX 01 05:33:18
  TRACK 125 AUDIO
    TITLE "2:cjc100_1611"
    INDEX 01 05:34:53
  TRACK 126 AUDIO
    TITLE "0:"
    INDEX 01 05:41:23
  TRACK 127 AUDIO
    TITLE "2:cjc100_1612"
    INDEX 01 05:41:60
  TRACK 128 AUDIO
    TITLE "2:cjc100_1613"
    INDEX 01 05:43:12
  TRACK 129 AUDIO
    TITLE "0:"
    INDEX 01 05:51:49
  TRACK 130 AUDIO
    TITLE "2:cjc100_1614"
    INDEX 01 05:52:15
  TRACK 131 AUDIO
    TITLE "2:cjc100_1615"
    INDEX 01 05:53:22
  TRACK 132 AUDIO
    TITLE "0:"
    INDEX 01 05:59:39
  TRACK 133 AUDIO
    TITLE "2:cjc100_1616"
    INDEX 01 06:00:01
  TRACK 134 AUDIO
    TITLE "2:cjc100_1617"
    INDEX 01 06:01:30
  TRACK 135 AUDIO
    TITLE "0:"
    INDEX 01 06:07:64
  TRACK 136 AUDIO
    TITLE "2:cjc100_1618"
    INDEX 01 06:08:38
  TRACK 137 AUDIO
    TITLE "2:cjc100_1619"
    INDEX 01 06:09:70
  TRACK 138 AUDIO
    TITLE "0:"
    INDEX 01 06:16:20
  TRACK 139 AUDIO
    TITLE "2:cjc100_1620"
    INDEX 01 06:16:53
  TRACK 140 AUDIO
    TITLE "2:cjc100_1621"
    INDEX 01 06:18:17
  TRACK 141 AUDIO
    TITLE "0:"
    INDEX 01 06:24:19
  TRACK 142 AUDIO
    TITLE "2:cjc100_1622"
    INDEX 01 06:24:56
  TRACK 143 AUDIO
    TITLE "2:cjc100_1623"
    INDEX 01 06:26:12
  TRACK 144 AUDIO
    TITLE "0:"
    INDEX 01 06:31:62
  TRACK 145 AUDIO
    TITLE "2:cjc100_1624"
    INDEX 01 06:32:32
  TRACK 146 AUDIO
    TITLE "2:cjc100_1625"
    INDEX 01 06:33:59
  TRACK 147 AUDIO
    TITLE "0:"
    INDEX 01 06:40:08
